<svg xmlns="http://www.w3.org/2000/svg">
    <symbol viewBox="0 0 24 24" id="icon-chevron-down"><path fill="none" stroke="currentColor" stroke-linecap="round" stroke-linejoin="round" stroke-width="2" d="m6 9l6 6l6-6"></path></symbol>
    <symbol viewBox="0 0 24 24" id="icon-chevron-left"><path fill="none" stroke="currentColor" stroke-linecap="round" stroke-linejoin="round" stroke-width="2" d="m15 18l-6-6l6-6"></path></symbol>
    <symbol viewBox="0 0 24 24" id="icon-chevron-right"><path fill="none" stroke="currentColor" stroke-linecap="round" stroke-linejoin="round" stroke-width="2" d="m9 18l6-6l-6-6"></path></symbol>
    <symbol viewBox="0 0 24 24" id="icon-ellipsis"><g fill="none" stroke="currentColor" stroke-linecap="round" stroke-linejoin="round" stroke-width="2"><circle cx="12" cy="12" r="1"></circle><circle cx="19" cy="12" r="1"></circle><circle cx="5" cy="12" r="1"></circle></g></symbol>
    <symbol viewBox="0 0 24 24" id="icon-mail"><g fill="none" stroke="currentColor" stroke-linecap="round" stroke-linejoin="round" stroke-width="2"><rect width="20" height="16" x="2" y="4" rx="2"></rect><path d="m22 7l-8.97 5.7a1.94 1.94 0 0 1-2.06 0L2 7"></path></g></symbol>
    <symbol viewBox="0 0 24 24" id="icon-terminal"><path fill="none" stroke="currentColor" stroke-linecap="round" stroke-linejoin="round" stroke-width="2" d="m4 17l6-6l-6-6m8 14h8"></path></symbol>
    <symbol viewBox="0 0 24 24" id="icon-x"><path fill="none" stroke="currentColor" stroke-linecap="round" stroke-linejoin="round" stroke-width="2" d="M18 6L6 18M6 6l12 12"></path></symbol>
    <symbol viewBox="0 0 24 24" id="icon-sun-moon"><path fill="none" stroke="currentColor" stroke-linecap="round" stroke-linejoin="round" stroke-width="2" d="M12 8a2.83 2.83 0 0 0 4 4a4 4 0 1 1-4-4m0-6v2m0 16v2M4.9 4.9l1.4 1.4m11.4 11.4l1.4 1.4M2 12h2m16 0h2M6.3 17.7l-1.4 1.4M19.1 4.9l-1.4 1.4"></path></symbol>
</svg>